<?xml version="1.0" encoding="utf-8"?>
<!-- Generator: Adobe Illustrator 23.0.6, SVG Export Plug-In . SVG Version: 6.00 Build 0)  -->
<svg version="1.1" id="Capa_1" xmlns="http://www.w3.org/2000/svg" xmlns:xlink="http://www.w3.org/1999/xlink" x="0px" y="0px"
	 viewBox="0 0 24 24" style="enable-background:new 0 0 24 24;" xml:space="preserve">
<style type="text/css">
	.st0{fill:#FFFFFF;}
</style>
<path class="st0" d="M18.2,1.2h-2.1l0.7,0.6C17,2,17.3,2.3,17.6,2.6c0.3,0.3,0.5,0.7,0.6,1.2c0.2,0.5,0.3,1,0.3,1.6
	c0,0.6-0.1,1.1-0.3,1.5c-0.2,0.4-0.4,0.8-0.6,1.2S17,8.7,16.7,9l-1.1,0.8c-0.2,0.2-0.4,0.4-0.6,0.7c-0.2,0.2-0.3,0.5-0.3,0.9
	c0,0.4,0.1,0.6,0.4,0.8c0.3,0.2,0.5,0.4,0.7,0.5l1.2,0.9c0.3,0.3,0.7,0.6,1,0.9c0.3,0.3,0.6,0.6,0.8,1c0.2,0.3,0.4,0.7,0.6,1.1
	c0.1,0.4,0.2,0.9,0.2,1.4c0,0.8-0.2,1.5-0.6,2.2c-0.4,0.7-0.9,1.3-1.6,1.9c-0.7,0.6-1.6,1-2.7,1.4c-1.1,0.3-2.3,0.5-3.7,0.5
	c-1.2,0-2.3-0.1-3.2-0.4c-0.9-0.3-1.7-0.6-2.3-1c-0.6-0.4-1.1-0.9-1.4-1.4c-0.3-0.5-0.4-1.1-0.4-1.7c0-0.6,0.2-1.2,0.6-1.9
	c0.4-0.7,1-1.4,2-1.9c0.5-0.3,1.1-0.5,1.7-0.7c0.6-0.2,1.2-0.3,1.8-0.4c0.6-0.1,1.1-0.2,1.7-0.2c0.5,0,1-0.1,1.3-0.1
	c-0.2-0.3-0.4-0.6-0.6-0.9c-0.2-0.3-0.3-0.7-0.3-1.2c0-0.3,0-0.5,0.1-0.7c0.1-0.2,0.1-0.4,0.2-0.5c-0.2,0-0.3,0-0.5,0
	c-0.2,0-0.4,0-0.5,0c-0.9,0-1.7-0.1-2.4-0.4c-0.7-0.3-1.3-0.7-1.8-1.1c-0.5-0.5-0.8-1-1.1-1.6C5.4,7.1,5.3,6.5,5.3,5.9
	c0-0.7,0.2-1.5,0.5-2.2c0.4-0.7,0.9-1.4,1.6-2c1-0.7,2-1.2,3.1-1.4c1.1-0.2,2-0.3,3-0.3h6.9L18.2,1.2z M17.4,19.2
	c0-0.4-0.1-0.7-0.2-1.1c-0.1-0.3-0.3-0.6-0.6-0.9s-0.6-0.6-1.1-1c-0.5-0.3-1-0.7-1.6-1.1c-0.1,0-0.2-0.1-0.4-0.1H13
	c-0.1,0-0.2,0-0.5,0c-0.2,0-0.5,0-0.9,0.1c-0.3,0-0.7,0.1-1.1,0.2c-0.4,0.1-0.8,0.1-1.1,0.3c-0.2,0.1-0.5,0.2-0.8,0.3
	c-0.3,0.1-0.6,0.3-1,0.6c-0.3,0.2-0.6,0.6-0.8,1c-0.2,0.4-0.3,0.8-0.3,1.4c0,0.6,0.1,1.1,0.4,1.5c0.3,0.5,0.7,0.9,1.2,1.2
	c0.5,0.4,1.1,0.6,1.9,0.8c0.7,0.2,1.5,0.3,2.4,0.3c1.6,0,2.8-0.3,3.6-0.9S17.4,20.2,17.4,19.2z M14.7,9.1c0.4-0.4,0.6-0.8,0.7-1.2
	c0.1-0.4,0.1-0.8,0.1-1.1c0-0.6-0.1-1.2-0.3-1.8c-0.2-0.7-0.4-1.3-0.8-1.9c-0.3-0.6-0.8-1.1-1.3-1.5c-0.5-0.4-1.1-0.6-1.8-0.6
	c-0.4,0-0.9,0.1-1.3,0.3C9.6,1.6,9.3,1.8,9,2.1C8.7,2.4,8.5,2.8,8.4,3.2C8.3,3.6,8.3,4,8.3,4.4c0,0.5,0.1,1.1,0.2,1.7
	C8.7,6.8,8.9,7.4,9.3,8c0.4,0.6,0.8,1,1.3,1.4c0.5,0.4,1.1,0.6,1.9,0.6c0.4,0,0.8-0.1,1.2-0.2C14.1,9.6,14.4,9.3,14.7,9.1z"/>
</svg>
